<svg viewBox="0 0 1024 1024" xmlns="http://www.w3.org/2000/svg">
  <path
    d="M960 768H64c-35.36 0-64-28.64-64-64V160c0-35.328 28.672-64 64-64h416.384V31.712C480.384 14.176 494.56 0 512 0s31.616 14.208 31.616 31.744V96H960c35.36 0 64 28.64 64 64v544c0 35.328-28.672 64-64 64zM960 224c0-35.328-28.64-64-64-64H544v30.528h-0.416v335.904l167.776-168.448c12.256-12.32 32.128-12.32 44.384 0 12.256 12.288 12.256 32.256 0 44.576l-219.904 220.736c-0.544 0.64-0.704 1.408-1.312 2.016-0.96 0.96-2.368 0.992-3.392 1.792-3.328 2.688-6.944 4.608-10.848 5.76-1.504 0.384-2.848 0.672-4.384 0.864-9.408 1.28-19.2-1.152-26.432-8.416-0.64-0.64-0.832-1.44-1.408-2.08L268.256 402.56c-12.256-12.32-12.256-32.288 0-44.576 12.256-12.32 32.128-12.32 44.384 0l167.776 168.448V190.528H480V160H128c-35.36 0-64 28.64-64 64v416c0 35.328 28.64 64 64 64h768c35.328 0 64-28.672 64-64V224zM96 832h832c8.672 0 32 8.544 32 17.248v32C960 889.92 936.672 896 928 896H96c-8.704 0-32-6.08-32-14.752v-32C64 840.544 87.296 832 96 832zM160 960h704c8.672 0 32 7.552 32 16.256v32C896 1016.928 872.672 1024 864 1024H160c-8.672 0-32-7.04-32-15.744v-32C128 967.552 151.296 960 160 960z"
    fill="#272636"
  />
</svg>
